PathFileType	4	(X/Y/Z)	./resultDataOpenSim/trcMotMarkerGrf/sub10/qtm-04-04.trc
DataRate	CameraRate	NumFrames	NumMarkers	Units	OrigDataRate	OrigDataStartFrame	OrigNumFrames
250.000000	250.000000	11	24	m	250.000000	196	520
Frame#	Time	L.Toe.Tip			R.Toe.Tip			L.Ankle.Lat			R.Ankle.Lat			L.Ankle.Med			R.Ankle.Med			L.Heel			R.Heel			L.Knee.Lat			R.Knee.Lat			L.Knee.Med			R.Knee.Med			L.Thigh.Upper			R.Thigh.Upper			L.ASIS			R.ASIS			V.Sacral			L.Acromium			R.Acromium			C7			L.Elbow			R.Elbow			L.Wrist.Lat			R.Wrist.Lat
		X1	Y1	Z1	X2	Y2	Z2	X3	Y3	Z3	X4	Y4	Z4	X5	Y5	Z5	X6	Y6	Z6	X7	Y7	Z7	X8	Y8	Z8	X9	Y9	Z9	X10	Y10	Z10	X11	Y11	Z11	X12	Y12	Z12	X13	Y13	Z13	X14	Y14	Z14	X15	Y15	Z15	X16	Y16	Z16	X17	Y17	Z17	X18	Y18	Z18	X19	Y19	Z19	X20	Y20	Z20	X21	Y21	Z21	X22	Y22	Z22	X23	Y23	Z23	X24	Y24	Z24

196	0.78	0.030015715	-0.033167637	-0.044816427	-0.71468986	0.038817543	0.032994431	-0.10219527	-0.0068732531	-0.097452292	-0.82050602	0.13170535	0.060949936	-0.11262472	0.014440209	-0.013766893	-0.77528718	0.1339974	-0.01575144	-0.17039068	-0.036178393	-0.065901772	-0.86717347	0.13828626	0.0056049643	-0.081010513	0.38183688	-0.11476853	-0.51558838	0.39351389	0.10517067	-0.095536075	0.35848308	0.0048369252	-0.47456025	0.37655142	-0.015305039	-0.18528902	0.74730946	-0.19230924	-0.36186219	0.76079139	0.16219611	-0.1666991	0.85264965	-0.10436691	-0.24920014	0.83640951	0.12704703	-0.39204487	0.8628774	-0.07449995	-0.29021883	1.3137311	-0.1751137	-0.33148278	1.317485	0.14735359	-0.39264565	1.3397289	-0.029808596	-0.45252896	1.0266705	-0.24770819	-0.3412168	0.95853844	0.20970296	-0.43507045	0.79881347	-0.32742726	-0.10629293	0.86810457	0.22182297
197	0.784	0.030174028	-0.033243239	-0.044652694	-0.71362115	0.038693384	0.033100363	-0.10176031	-0.0069814502	-0.097011383	-0.81501099	0.13618105	0.061505182	-0.11230912	0.014181126	-0.013272873	-0.76892137	0.13646472	-0.014279887	-0.17035141	-0.036250993	-0.065702469	-0.86026721	0.14429308	0.0056068169	-0.074996374	0.38125383	-0.11338916	-0.50602256	0.39223232	0.10584442	-0.092234509	0.35763924	0.0056795377	-0.46477162	0.37437523	-0.013926341	-0.17856554	0.74718013	-0.19303677	-0.35370969	0.75915231	0.16251376	-0.16019481	0.85218198	-0.10511808	-0.24102781	0.83514643	0.12593586	-0.38561073	0.86248806	-0.073406294	-0.28380429	1.3128596	-0.17593294	-0.32432666	1.3170659	0.14682236	-0.38596547	1.3391266	-0.030332167	-0.44519668	1.0252847	-0.24786887	-0.33640209	0.9581314	0.20901959	-0.42869689	0.79749804	-0.32800409	-0.10231647	0.8663083	0.22201089
198	0.788	0.030362916	-0.033313606	-0.044508808	-0.71235741	0.038563411	0.03324577	-0.10129428	-0.0069437882	-0.096517675	-0.80872791	0.14077263	0.062066874	-0.11190287	0.014062451	-0.012766355	-0.76194032	0.13881984	-0.012723368	-0.17028698	-0.036164793	-0.065380278	-0.85256886	0.15046734	0.0054302423	-0.069119342	0.38071728	-0.1121367	-0.49593994	0.3908497	0.10666513	-0.088932191	0.35695583	0.0063290357	-0.45443659	0.3718916	-0.012421239	-0.17193195	0.74719356	-0.19372832	-0.34564428	0.75759052	0.16282701	-0.153823	0.85176483	-0.10584113	-0.23300718	0.83395178	0.1248315	-0.37928475	0.86216887	-0.072233814	-0.27736182	1.312091	-0.17670981	-0.31718402	1.3167657	0.1463328	-0.3793046	1.3386434	-0.030807918	-0.43786661	1.0239816	-0.24801331	-0.33162208	0.95782142	0.2083063	-0.42210866	0.79624845	-0.32849544	-0.098465821	0.86448449	0.22218798
199	0.792	0.030555886	-0.033380789	-0.0443908	-0.71089841	0.038434959	0.033457769	-0.10082442	-0.0068240177	-0.096032548	-0.80179768	0.14537496	0.062671159	-0.111475	0.014025287	-0.012308987	-0.75450629	0.14114324	-0.011129879	-0.17020929	-0.035986802	-0.065038641	-0.8443306	0.15667352	0.0052945124	-0.063421499	0.38022732	-0.1110304	-0.48540079	0.38936082	0.10762061	-0.085638817	0.3564404	0.0067839384	-0.44353714	0.369079	-0.010830392	-0.16541483	0.74735881	-0.19437237	-0.33767804	0.75610918	0.16312406	-0.14758385	0.85140387	-0.10652965	-0.22516487	0.83282579	0.12374211	-0.37306947	0.86191923	-0.070992508	-0.27090092	1.311428	-0.17744985	-0.31008902	1.3165826	0.14588189	-0.37264296	1.3382749	-0.031257168	-0.43055125	1.0227758	-0.248131	-0.32690886	0.95761476	0.20760365	-0.4152966	0.79507141	-0.32889722	-0.094751415	0.86264174	0.22236173
200	0.796	0.030733108	-0.033446603	-0.04430065	-0.70929895	0.03828466	0.033736246	-0.10037429	-0.0066876309	-0.095606865	-0.7944503	0.14985456	0.063326585	-0.11105394	0.014030068	-0.011934547	-0.74676923	0.14350486	-0.0095609408	-0.17012736	-0.035774669	-0.064757323	-0.8357246	0.16282261	0.0053743538	-0.05793708	0.37978534	-0.11008618	-0.4744931	0.38776821	0.10870914	-0.082314136	0.35609167	0.0070805603	-0.43208424	0.36593994	-0.0091837941	-0.15904397	0.74767524	-0.19496874	-0.32981108	0.75468313	0.16339053	-0.14148758	0.85111363	-0.10718449	-0.21749743	0.83179766	0.12266139	-0.36696783	0.8617386	-0.069692439	-0.26443918	1.3108758	-0.17816137	-0.30307274	1.3165051	0.14546806	-0.36595287	1.3380137	-0.031705832	-0.42325076	1.021678	-0.24822401	-0.32226808	0.95752109	0.20693871	-0.40824677	0.79396947	-0.32920511	-0.09119844	0.86078383	0.22256355
201	0.8	0.03088236	-0.033512383	-0.04423912	-0.70764953	0.03806589	0.03404197	-0.09996133	-0.0065893166	-0.095274786	-0.78675523	0.1541396	0.064038053	-0.11066109	0.014065969	-0.011664006	-0.73874127	0.1458685	-0.0080140544	-0.17004785	-0.035567747	-0.064580294	-0.82669504	0.16893135	0.0056535983	-0.052703671	0.37939068	-0.10931347	-0.46331032	0.38608715	0.10995309	-0.078853604	0.35589616	0.0073077029	-0.42011153	0.36249489	-0.0074923005	-0.15284166	0.74812785	-0.19551747	-0.3220396	0.75327269	0.16361868	-0.13554326	0.85091508	-0.10780767	-0.21000336	0.83089869	0.12158784	-0.36098335	0.86162686	-0.068342442	-0.25796908	1.3104388	-0.1788462	-0.2961195	1.3165248	0.14506895	-0.35922585	1.3378493	-0.032158421	-0.41595704	1.0206975	-0.24830556	-0.31771334	0.95757371	0.20633187	-0.40094752	0.79294502	-0.32941539	-0.087797246	0.85891468	0.2227915
202	0.804	0.030997886	-0.033578634	-0.044206872	-0.70598083	0.03777288	0.034313387	-0.099596982	-0.00655977	-0.095053972	-0.77864242	0.1582529	0.064835186	-0.11032323	0.014132818	-0.011510345	-0.73032941	0.14815687	-0.0064321145	-0.1699754	-0.035384004	-0.064523375	-0.81711089	0.17505806	0.0060685366	-0.047762535	0.37903255	-0.10871301	-0.4519295	0.38433049	0.11136375	-0.075152301	0.35582773	0.0075674828	-0.40766455	0.35877311	-0.005753532	-0.14682183	0.74868167	-0.19602164	-0.31436573	0.7518619	0.16380401	-0.1297377	0.85082694	-0.10839875	-0.20268136	0.83013395	0.12052485	-0.35511986	0.86158491	-0.066947747	-0.25146148	1.3101195	-0.17949567	-0.2891723	1.3166384	0.14464819	-0.35246973	1.3377715	-0.032608073	-0.40866235	1.0198426	-0.24839237	-0.31329908	0.95784798	0.20582166	-0.39339676	0.79200429	-0.32952736	-0.084485973	0.85704367	0.222997
203	0.808	0.031079259	-0.033644125	-0.044201973	-0.70419455	0.037517297	0.034496215	-0.099288617	-0.0065977376	-0.094943695	-0.77007754	0.16226992	0.06575376	-0.11005019	0.014223943	-0.01147121	-0.72151585	0.15038627	-0.0048020278	-0.16991226	-0.035225634	-0.064580098	-0.80698406	0.18123432	0.0066684963	-0.043153833	0.37868486	-0.10828631	-0.44037868	0.38248657	0.11289122	-0.071187689	0.3558527	0.007910647	-0.3948146	0.35481641	-0.0039607524	-0.1409912	0.7492867	-0.19648945	-0.30679576	0.75046737	0.16394109	-0.12404468	0.85085125	-0.10895781	-0.1955234	0.82948852	0.11948322	-0.34938101	0.86161543	-0.065508619	-0.24490241	1.3099223	-0.18009363	-0.28219763	1.3168401	0.14418541	-0.34569997	1.3377709	-0.033049231	-0.40136118	1.0191175	-0.24850548	-0.30908229	0.95840199	0.20544343	-0.38560635	0.79115515	-0.32954391	-0.081205563	0.85518226	0.2231396
204	0.812	0.031130725	-0.033706065	-0.044217803	-0.70210512	0.037541457	0.034587226	-0.099038604	-0.0066767039	-0.094924531	-0.76110834	0.16626521	0.066804175	-0.10981843	0.014324146	-0.011524825	-0.71243721	0.15265949	-0.0031842846	-0.16985855	-0.035089264	-0.064722152	-0.79650005	0.18746605	0.0076179282	-0.038912113	0.37831422	-0.10804447	-0.42864693	0.38052719	0.11444058	-0.067012602	0.35593795	0.008318788	-0.38164067	0.35069159	-0.0021227417	-0.13534867	0.74989466	-0.19692644	-0.29932992	0.74911198	0.16402704	-0.11845352	0.85097052	-0.10949759	-0.18852772	0.82895336	0.11848758	-0.34376891	0.86172185	-0.064026626	-0.23830099	1.3098494	-0.18062512	-0.27521392	1.3171176	0.1436852	-0.33893105	1.3378407	-0.033481223	-0.39405323	1.0185205	-0.24866114	-0.30503499	0.95917244	0.20517574	-0.37760276	0.79040469	-0.32947267	-0.077967595	0.85333869	0.22322689
205	0.816	0.031159983	-0.033762274	-0.044245109	-0.69955243	0.038123911	0.03465277	-0.098838693	-0.006765755	-0.094961903	-0.7518168	0.17028025	0.067968783	-0.10958995	0.014416982	-0.011633091	-0.70323068	0.15506612	-0.0016517711	-0.16981489	-0.034970566	-0.064906342	-0.78588513	0.19376632	0.0090881178	-0.035061012	0.37789514	-0.10800039	-0.41673239	0.37844198	0.11594664	-0.062723601	0.35605932	0.0087155329	-0.36817543	0.34648875	-0.00027904977	-0.12989149	0.7504711	-0.19733222	-0.29195822	0.7478061	0.16405925	-0.11296816	0.85116238	-0.11003882	-0.18170529	0.82853675	0.11756617	-0.33828061	0.86190157	-0.062527256	-0.23167286	1.3098958	-0.18108664	-0.26826149	1.3174582	0.14316251	-0.33217539	1.3379799	-0.033906554	-0.3867489	1.018045	-0.24884114	-0.30107427	0.96000526	0.20496786	-0.36941863	0.78975691	-0.32932007	-0.074865002	0.85151315	0.22329982
206	0.82	0.031175651	-0.033812698	-0.04427697	-0.6964837	0.039421789	0.03478269	-0.098669658	-0.0068481453	-0.09501607	-0.7422665	0.17432606	0.069215113	-0.10934581	0.014491254	-0.011750574	-0.69386757	0.15762855	-0.00024496836	-0.16978334	-0.034863967	-0.065089199	-0.77517968	0.20015045	0.011058977	-0.031608847	0.37741871	-0.10815736	-0.4046667	0.37625838	0.11741363	-0.058467075	0.3562016	0.0089893606	-0.35442019	0.34231389	0.0015194418	-0.12462074	0.75099762	-0.19770534	-0.28467731	0.74655697	0.16404104	-0.10758351	0.85141432	-0.11058037	-0.17507026	0.82826194	0.11673974	-0.33290396	0.86213179	-0.061094881	-0.22502839	1.310054	-0.1814894	-0.26136515	1.3178556	0.1426297	-0.32545102	1.3381923	-0.03432761	-0.37946	1.0176808	-0.24899537	-0.29716449	0.96081414	0.20480749	-0.36107693	0.78920973	-0.32908424	-0.071996946	0.84970046	0.2233927
